<svg xmlns="http://www.w3.org/2000/svg" width="600" height="200">
  <defs>
    <linearGradient id="grad1" x1="0%" y1="0%" x2="100%" y2="0%">
      <stop offset="0%" style="stop-color:rgb(155,155,155);stop-opacity:1" />
      <stop offset="10%" style="stop-color:rgb(0,0,0);stop-opacity:1" />
    </linearGradient>
    <linearGradient id="grad2" x1="100%" y1="0%" x2="0%" y2="0%">
      <stop offset="0%" style="stop-color:rgb(155,155,155);stop-opacity:1" />
      <stop offset="10%" style="stop-color:rgb(0,0,0);stop-opacity:1" />
    </linearGradient>
    <linearGradient id="grad3" x1="0%" y1="100%" x2="0%" y2="0%">
      <stop offset="0%" style="stop-color:rgb(155,155,155);stop-opacity:1" />
      <stop offset="10%" style="stop-color:rgb(0,0,0);stop-opacity:1" />
    </linearGradient>
    <linearGradient id="grad4" x1="0%" y1="0%" x2="0%" y2="100%">
      <stop offset="0%" style="stop-color:rgb(155,155,155);stop-opacity:1" />
      <stop offset="10%" style="stop-color:rgb(0,0,0);stop-opacity:1" />
    </linearGradient>
    <filter id="f1" x="0" y="0">
      <feGaussianBlur in="SourceGraphic" stdDeviation="2" />
    </filter>
  </defs>
  <polygon points="100,100 0,0 0,200" style="fill:url(#grad1)" />
  <polygon points="500,100 600,0 600,200" style="fill:url(#grad2)" />
  <polygon points="100,100 500,100 600,200 0,200" style="fill:url(#grad3)" />
  <polygon points="100,100 500,100 600,0 0,0" style="fill:url(#grad4)" />
  <polygon points="10,10 590,10 590,190 10,190" style="fill:#141414" />

  <rect x="50" y="44" width="3" height="20" style="fill:#e3b667;fill-opacity:0.6" filter="url(#f1)"/>
  <rect x="51" y="46" width="2" height="18" style="fill:#eb8205;fill-opacity:0.8" />

  <rect x="56" y="44" width="3" height="20" style="fill:#e3b667;fill-opacity:0.6" filter="url(#f1)"/>
  <rect x="57" y="46" width="2" height="18" style="fill:#eb8205;fill-opacity:0.8" />

  <rect x="62" y="44" width="3" height="20" style="fill:#e3b667;fill-opacity:0.6" filter="url(#f1)"/>
  <rect x="63" y="46" width="2" height="18" style="fill:#eb8205;fill-opacity:0.8" />

  <rect x="68" y="44" width="3" height="20" style="fill:#e3b667;fill-opacity:0.6" filter="url(#f1)"/>
  <rect x="69" y="46" width="2" height="18" style="fill:#eb8205;fill-opacity:0.8" />

  <rect x="74" y="44" width="3" height="20" style="fill:#e3b667;fill-opacity:0.6" filter="url(#f1)"/>
  <rect x="75" y="46" width="2" height="18" style="fill:#eb8205;fill-opacity:0.8" />

  <rect x="80" y="44" width="3" height="20" style="fill:#e3b667;fill-opacity:0.6" filter="url(#f1)"/>
  <rect x="81" y="46" width="2" height="18" style="fill:#eb8205;fill-opacity:0.8" />

</svg>